# xmcd
#
# Track frame offsets: 
#        150
#        15480
#        26680
#        38650
#        58405
#        72677
#        91377
#        114570
#        130312
#        148832
#        167697
#        179777
#        192347
#        212290
#        227260
#        239225
#        254097
#        268945
#
# Disc length: 3937 seconds
#
# Revision: 0
# Processed by: cddbd v1.5.1PL2 Copyright (c) Steve Scherf et al.
# Submitted via: ExactAudioCopy v0.95b3
#
DISCID=180f5f12
DTITLE=Various Artist - Feber 2 Andres Lokko Folk [Disc 2]
DYEAR=2005
DGENRE=Folk
TTITLE0=Vashti Bunyan - Rainbow River
TTITLE1=The Memory Band - Theme for the Memory Band
TTITLE2=Lidisfarne - Meet Me on the Corner
TTITLE3=Fairport Convention - Autopsy
TTITLE4=Richard and Linda Thompson - I Want to See the Bright Lights T
TTITLE4=onight
TTITLE5=Gary Farr - Don't Know why You Bother Child
TTITLE6=Dando Shaft - Rain
TTITLE7=Donovan - Turquoise
TTITLE8=Forest - Nothing Else Will Matter
TTITLE9=Shelagh McDonald - Stargazer
TTITLE10=King Creosote - The Someone Else
TTITLE11=John Martyn - Walk to the Water
TTITLE12=Jade - Fly on Strangewings
TTITLE13=Meic Stevens - Love Owed
TTITLE14=Gorky's Zygotic Mynci - Sbia Ar Y Seren
TTITLE15=Claire Hamill - Island
TTITLE16=Sandy Denny - The Music Weaver (demo)
TTITLE17=Terry Reid - Milestones
EXTD=
EXTT0=
EXTT1=
EXTT2=
EXTT3=
EXTT4=
EXTT5=
EXTT6=
EXTT7=
EXTT8=
EXTT9=
EXTT10=
EXTT11=
EXTT12=
EXTT13=
EXTT14=
EXTT15=
EXTT16=
EXTT17=
PLAYORDER=
